PathFileType	4	(X/Y/Z)	11_coords_data.trc
DataRate	CameraRate	NumFrames	NumMarkers	Units	OrigDataRate	OrigDataStartFrame	OrigNumFrames
30.0	30.0	8	21	m	30.0	1	62
Frame#	Time	THUMB_TIP	THUMB_IP	THUMB_MCP	THUMB_CMC	INDEX_TIP	INDEX_DIP	INDEX_PIP	INDEX_MCP	MIDDLE_TIP	MIDDLE_DIP	MIDDLE_PIP	MIDDLE_MCP	RING_TIP	RING_DIP	RING_PIP	RING_MCP	PINKY_TIP	PINKY_DIP	PINKY_PIP	PINKY_MCP	WRIST
X1	Y1	Z1	X2	Y2	Z2	X3	Y3	Z3	X4	Y4	Z4	X5	Y5	Z5	X6	Y6	Z6	X7	Y7	Z7	X8	Y8	Z8	X9	Y9	Z9	X10	Y10	Z10	X11	Y11	Z11	X12	Y12	Z12	X13	Y13	Z13	X14	Y14	Z14	X15	Y15	Z15	X16	Y16	Z16	X17	Y17	Z17	X18	Y18	Z18	X19	Y19	Z19	X20	Y20	Z20	X21	Y21	Z21
0	-2.749317978547796e-18	0.46472963672162226	-0.020031821903373492	-0.16673359572714241	0.476376042729416	-0.021925260867159957	-0.14701618930560612	0.47657163187402785	-0.033488139337462086	-0.11811841108015197	0.4791078644889024	-0.03132324314800983	-0.07363503498736712	0.5102981918788259	-0.0179418659049998	-0.10471896949377901	0.5279130406511354	-0.0144251244636584	-0.10703189672207958	0.5378266359842447	0.004610298207052832	-0.12012323524488644	0.495745858844626	0.010905198489137624	-0.12191725859042879	0.5091454061756484	-0.017638289790206874	-0.08616556222413096	0.5264837433007981	-0.012495672285606663	-0.08519832340355205	0.5417006753786462	0.009958757709664812	-0.0958591442784007	0.5012843658526969	0.027849748313977907	-0.10238465579084488	0.5074276231587307	-0.0053721700790312354	-0.07241853507208906	0.5247139253081594	-0.0007768326893027311	-0.0701676169764629	0.5395757808805604	0.01863264655866248	-0.0749191791688274	0.5047594370713246	0.038072959839040244	-0.0815987942264389	0.505505256205953	-0.006644043001479583	-0.05472779614430301	0.5220574874589936	-0.0035766250409959843	-0.05162705629685249	0.5331271028375998	0.014198224647216984	-0.05315360565116689	0.5053879697306053	0.03662247156643528	-0.05849936056309257	0.46228308100186083	-0.023011742144276925	-0.051989820119430985
1	0.03333333333333339	0.464560107271922	-0.019203788677558342	-0.16667078039687755	0.47625966430169286	-0.021225403248011587	-0.14699761492114205	0.4766926282140246	-0.032895070363254675	-0.11814538083658577	0.4792375546449952	-0.031016366103448822	-0.07364949541146881	0.5105110410290685	-0.01716762193313559	-0.10455138912359907	0.5280766365249119	-0.013402277871800039	-0.1068474812332868	0.5377717768861461	0.00587572698870642	-0.11974603211988855	0.495630062879868	0.011742559047954071	-0.12156050620392744	0.5091849019029027	-0.01682377347399211	-0.08608011059916554	0.5264894237130449	-0.011590002805715205	-0.08500253484118092	0.5415621421085509	0.011057605372682855	-0.09545760796228031	0.5009689090513432	0.028580796494597882	-0.10188217984436387	0.5072227777832842	-0.004691367752368225	-0.07220083918231235	0.5244560675823574	2.8031965125463465e-05	-0.06980480307914505	0.5391910522639644	0.019581769185729736	-0.0743557992492564	0.504211546235614	0.03875059916793522	-0.08096722489928909	0.5054659264179169	-0.005950337107380466	-0.05463857258015947	0.5218970965795071	-0.002523871894356655	-0.05128059949140473	0.5326222670239459	0.015470686886168372	-0.05268722390181668	0.504442494631276	0.037346235468049604	-0.058001756161487505	0.4622830810018609	-0.023011742144276925	-0.051989820119430985
2	0.06666666666666676	0.46435551437347006	-0.01850566281859567	-0.1666395164675607	0.47609550834000347	-0.020650300435984037	-0.14700350182212307	0.47672093296784257	-0.03241325250747762	-0.1181927086605552	0.4792991253231525	-0.030774362140776668	-0.0736892597768456	0.5105963468519745	-0.016561758524797132	-0.10447122647833873	0.5281260747392773	-0.01263177345166	-0.10676553629221286	0.5376665281260196	0.006825769858347375	-0.11950891066929958	0.4954854920116832	0.01241336134843718	-0.12129079384754915	0.509156970324073	-0.016216078681996482	-0.0860519393090936	0.5264383723291093	-0.010920320751347856	-0.08490822051485447	0.5414188368323872	0.011861619026917958	-0.09520280419781646	0.5007043116134234	0.02915080427554073	-0.10149243301303001	0.5070295514606946	-0.004187450322891584	-0.07205430497311482	0.5242262959576625	0.0006193988132290329	-0.0695711255417033	0.5388752435236513	0.02027075602968198	-0.07397708443396234	0.5037808136433883	0.03926534982527252	-0.080481485399449	0.5054390205835699	-0.005420211482792592	-0.054572509787746526	0.5217802256854572	-0.0017282085528163016	-0.05106051175484594	0.532243981369108	0.01642587429670217	-0.052383807596932286	0.503726166804001	0.037876007142490065	-0.057628757961638355	0.46228308100186083	-0.023011742144276925	-0.051989820119430985
3	0.10000000000000014	0.4641292995267809	-0.01791516533664972	-0.1666346597959485	0.47589878044434	-0.020177886257064626	-0.1470295733904381	0.47667583488110377	-0.032025595638427884	-0.11825722609625533	0.47930509873699506	-0.03058973706966428	-0.07374975164817388	0.5105774351224874	-0.016103857119012077	-0.10446278588612956	0.5280843714687744	-0.012079696848714905	-0.10676784855035792	0.5375267763303017	0.007503963349838161	-0.11939048997989288	0.4953227868341718	0.012939607246935325	-0.12109728230308636	0.509078552201158	-0.015787787685039967	-0.08607176373873537	0.526346290150314	-0.010454150918572047	-0.08489807512472192	0.5412793420502158	0.012412850139527642	-0.09507224701061545	0.5004896637103878	0.0295821418965293	-0.10120131565897683	0.5068532195252895	-0.0038352059333435218	-0.07196858345550794	0.5240283147128438	0.0010284143769874188	-0.06944642113412836	0.5386271840164443	0.02073846584788186	-0.07375534966348374	0.5034582552470006	0.03964167155189291	-0.0801221461359376	0.5054249310133877	-0.005033797660363937	-0.05452618207298854	0.5217079558777789	-0.0011558258313877356	-0.050945059936103765	0.5319848015365283	0.01710848269002374	-0.05221529477303044	0.5032154314768043	0.03824467522029784	-0.057360016601259334	0.46228308100186094	-0.023011742144276925	-0.051989820119430985
4	0.13333333333333353	0.4638942350949867	-0.017410352036337562	-0.16664975953547445	0.47568396469514806	-0.019786392010979537	-0.14707026235107312	0.4765758424975614	-0.03171516482184733	-0.11833476282153188	0.4792673291877986	-0.030454845044763035	-0.07382569078609436	0.5104773782021209	-0.015773224014245524	-0.10451030347204893	0.5279730774407618	-0.011712238360382043	-0.10683600845551855	0.537366033833848	0.007953103591464616	-0.11936822809589043	0.49515193247065215	0.013342643824160727	-0.12096778934135288	0.5089651196398793	-0.015511101293188112	-0.08612893353962792	0.5262271697644083	-0.010159312607241455	-0.08495420660998698	0.541149746586961	0.012752654763085847	-0.0950422194071674	0.500322952040535	0.02989635518437872	-0.10099321125129601	0.5066980885715981	-0.0036097473886811393	-0.07193209431517611	0.5238642134731417	0.0012853885856976	-0.06940983349262952	0.5384432501650749	0.021022504825370936	-0.07366164612689363	0.5032330737687766	0.03990214516044732	-0.07986837577782213	0.5054241236690201	-0.004771121032429271	-0.05449538970725387	0.5216779070032043	-0.000773665000109558	-0.05091281066485065	0.5318327343484774	0.017560769323540115	-0.0521537855314268	0.5028840311560988	0.03848071718542112	-0.057174922448077314	0.4622830810018609	-0.023011742144276925	-0.051989820119430985
5	0.1666666666666669	0.46366272791748925	-0.016969590198843143	-0.16667748307842467	0.47546514231316495	-0.01945432621776999	-0.14711913188644032	0.47643901164380326	-0.03146518658717512	-0.11842051150647259	0.47919727591773625	-0.03036197913971672	-0.07391135613903144	0.5103190949629943	-0.01554897991394455	-0.10459789772249362	0.5278128659346798	-0.011495722626858051	-0.10695142328107543	0.5371963292678346	0.008215355006665148	-0.11941873523676816	0.49498245361893656	0.013643299903562056	-0.12088918105203172	0.5088311648997396	-0.01535823660000557	-0.0862119044083367	0.526093883464773	-0.010004025613081224	-0.08505822661451934	0.5410345186197392	0.012921699462043912	-0.0950880870794496	0.5002013691926754	0.030114303260185715	-0.10085143710414946	0.5065677962189681	-0.003486749150480306	-0.07193251355189001	0.5237350312987803	0.0014197530750298393	-0.0694400698463008	0.5383182070070611	0.021159326439373793	-0.07366620385448097	0.5030932205784723	0.04006788765299707	-0.07969840726089938	0.5054367385247795	-0.004612149867275317	-0.05447529393440631	0.5216852840365767	-0.0005494700813577502	-0.05094267426790544	0.531772734102302	0.017822925886787577	-0.05217167246203669	0.502704109957893	0.038609287934871506	-0.05705282951309243	0.4622830810018609	-0.023011742144276925	-0.051989820119430985
6	0.20000000000000023	0.46344706606088254	-0.01657151293306569	-0.16670993482507268	0.4752562508907175	-0.019160431947608303	-0.1471691914412877	0.47628321678135593	-0.03125902589095153	-0.11850930020538875	0.47910622956613164	-0.03030341959302474	-0.07400079073337473	0.5101254653820961	-0.015410147543137631	-0.10470951946382334	0.5276240205410037	-0.01139659848043928	-0.10709530890800734	0.5370289251667133	0.008332421003468093	-0.11951800556311842	0.49482357622613454	0.013862032036213723	-0.12084767342786051	0.5086906175141136	-0.01530166725925497	-0.08630859844184446	0.5259586650008974	-0.009956928889830907	-0.08519132150366471	0.5409372117505846	0.012960056449074386	-0.09518454271825982	0.5001215644625422	0.030256321836725997	-0.10075859520258756	0.5064655541453618	-0.0034425606643045947	-0.07195713993874897	0.5236411923015696	0.001460111694519206	-0.06951557124853247	0.5382458696969852	0.021184416195032307	-0.07373874412527726	0.5030258262628537	0.04015896939701513	-0.07958987267308959	0.505462399955222	-0.004536870275242966	-0.05446062012227215	0.5217237350401446	-0.0004516778573415703	-0.05101385581867013	0.5317878492187138	0.017933593383366087	-0.05224162868297855	0.5026469428317697	0.038653240976868064	-0.05697314319193392	0.4622830810018609	-0.023011742144276925	-0.051989820119430985
7	0.23333333333333361	0.4632595992981395	-0.016194971469611796	-0.16673888059098774	0.47507127480397365	-0.01888364198685155	-0.14721311882365562	0.47612635437742884	-0.03108015277716747	-0.1185957826157662	0.4790054804647985	-0.030271457655945633	-0.07408795583020034	0.5099194336729878	-0.015335729213129645	-0.10482891180262033	0.5274268084282357	-0.01138141992670516	-0.10724867775134417	0.536874863365123	0.008345713866229953	-0.11964159037208022	0.49468435278077655	0.014019058156460984	-0.12082905624386597	0.5085571709271144	-0.015314258772500033	-0.08640667140862102	0.5258334819730119	-0.009987052717698397	-0.08533431312190709	0.540861005314303	0.012907327175819328	-0.09530579553518137	0.5000798395848794	0.030342381629387294	-0.10069683615368985	0.5063943255493261	-0.003454230148551951	-0.07199315533328987	0.5235828222991497	0.0014343443147919466	-0.06961462234053029	0.5382195960613239	0.02113250251849208	-0.07384869794412263	0.5030175218881213	0.0401947871106908	-0.07952003941068764	0.5055001609411787	-0.0045253417498341	-0.0544458416288337	0.5217860236634513	-0.0004492419624655408	-0.051105768887903524	0.5318600762977899	0.017930385383453373	-0.05233653334373067	0.5026834046917105	0.03863400509079995	-0.05691533406057547	0.4622830810018609	-0.023011742144276925	-0.051989820119430985
